<svg viewBox="0 0 720 320" xmlns="http://www.w3.org/2000/svg" role="img" aria-label="Trois petits cadres : une petite fleur, une brindille à feuilles, une plume végétale">
  <title>Trio Clairière</title>
  <defs>
    <filter id="g3" x="-5%" y="-5%" width="110%" height="110%">
      <feTurbulence type="fractalNoise" baseFrequency="0.85" numOctaves="2" stitchTiles="stitch" result="n"/>
      <feColorMatrix in="n" type="matrix" values="0 0 0 0 0  0 0 0 0 0  0 0 0 0 0  0 0 0 0.03 0"/>
    </filter>
  </defs>
  <rect width="720" height="320" fill="#1B211B"/>
  <rect width="720" height="320" filter="url(#g3)"/>

  <g stroke="#2B2620" stroke-width="2.4" fill="#EFE7D3">
    <rect x="40" y="70" width="180" height="180" rx="2"/>
    <rect x="270" y="70" width="180" height="180" rx="2"/>
    <rect x="500" y="70" width="180" height="180" rx="2"/>
  </g>

  <!-- frame 1 : small flower -->
  <g transform="translate(40,70)" stroke="#2B2620" stroke-width="2" fill="none" stroke-linecap="round" stroke-linejoin="round">
    <path d="M 90,160 C 88,130 92,108 90,92"/>
    <path d="M 90,140 C 80,136 74,144 78,152"/>
    <g transform="translate(90,66)">
      <path d="M 0,0 C 6,-14 -6,-14 0,-26" opacity="0.9"/>
      <path d="M 0,0 C 14,-6 14,6 26,0" opacity="0.9"/>
      <path d="M 0,0 C 6,14 -6,14 0,26" opacity="0.9"/>
      <path d="M 0,0 C -14,-6 -14,6 -26,0" opacity="0.9"/>
      <circle r="6" fill="#C9AF78" stroke="none" opacity="0.85"/>
    </g>
  </g>

  <!-- frame 2 : twig with leaves -->
  <g transform="translate(270,70)" stroke="#2B2620" stroke-width="2.2" fill="none" stroke-linecap="round">
    <path d="M 40,150 C 70,130 100,120 150,90"/>
    <path d="M 70,138 C 66,122 78,114 76,100" fill="#8E9A76" fill-opacity="0.5" stroke-width="1.8"/>
    <path d="M 96,124 C 100,108 116,104 112,90" fill="#8E9A76" fill-opacity="0.5" stroke-width="1.8"/>
    <path d="M 122,110 C 132,98 148,98 148,84" fill="#8E9A76" fill-opacity="0.5" stroke-width="1.8"/>
  </g>

  <!-- frame 3 : feathery frond -->
  <g transform="translate(500,70)" stroke="#2B2620" stroke-width="1.8" fill="none" stroke-linecap="round">
    <path d="M 90,164 C 92,120 88,76 92,34"/>
    <path d="M 90,150 L 60,140"/>
    <path d="M 90,150 L 120,140"/>
    <path d="M 90,132 L 58,120"/>
    <path d="M 90,132 L 122,120"/>
    <path d="M 90,112 L 62,100"/>
    <path d="M 90,112 L 118,100"/>
    <path d="M 90,92 L 66,82"/>
    <path d="M 90,92 L 114,82"/>
    <path d="M 90,72 L 72,64"/>
    <path d="M 90,72 L 108,64"/>
    <path d="M 90,54 L 78,48"/>
    <path d="M 90,54 L 102,48"/>
  </g>
</svg>
